<?xml version="1.0" encoding="UTF-8" standalone="no"?>
<svg width="32px" height="32px" viewBox="0 0 32 32" version="1.1" xmlns="http://www.w3.org/2000/svg" xmlns:xlink="http://www.w3.org/1999/xlink" xmlns:sketch="http://www.bohemiancoding.com/sketch/ns">
    <!-- Generator: Sketch 3.0.2 (7799) - http://www.bohemiancoding.com/sketch -->
    <title>Slice 1</title>
    <description>Created with Sketch.</description>
    <defs></defs>
    <g id="Page-1" stroke="none" stroke-width="1" fill="none" fill-rule="evenodd" sketch:type="MSPage">
        <g id="happy" sketch:type="MSLayerGroup" fill="#FFFFFF">
            <g id="Group" sketch:type="MSShapeGroup">
                <path d="M16,-0.034 C7.159,-0.034 -0.035,7.158 -0.035,16 C-0.035,24.842 7.159,32.034 16,32.034 C24.841,32.034 32.035,24.842 32.035,16 C32.035,7.158 24.841,-0.034 16,-0.034 L16,-0.034 Z M16,30.966 C7.748,30.966 1.035,24.252 1.035,16 C1.035,7.748 7.748,1.034 16,1.034 C24.252,1.034 30.965,7.748 30.965,16 C30.965,24.252 24.252,30.966 16,30.966 L16,30.966 Z" id="Shape"></path>
                <path d="M10.5,16.5 C11.603,16.5 12.5,15.603 12.5,14.5 C12.5,13.397 11.603,12.5 10.5,12.5 C9.397,12.5 8.5,13.397 8.5,14.5 C8.5,15.603 9.397,16.5 10.5,16.5 L10.5,16.5 Z M10.5,13.5 C11.051,13.5 11.5,13.948 11.5,14.5 C11.5,15.052 11.051,15.5 10.5,15.5 C9.949,15.5 9.5,15.052 9.5,14.5 C9.5,13.948 9.949,13.5 10.5,13.5 L10.5,13.5 Z" id="Shape"></path>
                <path d="M21.5,16.5 C22.603,16.5 23.5,15.603 23.5,14.5 C23.5,13.397 22.603,12.5 21.5,12.5 C20.397,12.5 19.5,13.397 19.5,14.5 C19.5,15.603 20.397,16.5 21.5,16.5 L21.5,16.5 Z M21.5,13.5 C22.051,13.5 22.5,13.948 22.5,14.5 C22.5,15.052 22.051,15.5 21.5,15.5 C20.949,15.5 20.5,15.052 20.5,14.5 C20.5,13.948 20.949,13.5 21.5,13.5 L21.5,13.5 Z" id="Shape"></path>
                <path d="M22.823,22.075 C21.127,23.912 18.726,24.966 16.235,24.966 C13.705,24.966 11.279,23.885 9.579,21.999 C9.381,21.781 9.042,21.762 8.824,21.961 C8.605,22.158 8.587,22.496 8.785,22.716 C10.688,24.825 13.403,26.034 16.235,26.034 C19.023,26.034 21.711,24.855 23.608,22.8 C23.808,22.583 23.795,22.245 23.578,22.045 C23.361,21.845 23.023,21.857 22.823,22.075 L22.823,22.075 Z" id="Shape"></path>
            </g>
        </g>
    </g>
</svg>