<?xml version="1.0" encoding="UTF-8" standalone="no"?>
<svg width="32px" height="32px" viewBox="0 0 32 32" version="1.1" xmlns="http://www.w3.org/2000/svg" xmlns:xlink="http://www.w3.org/1999/xlink" xmlns:sketch="http://www.bohemiancoding.com/sketch/ns">
    <!-- Generator: Sketch 3.0.2 (7799) - http://www.bohemiancoding.com/sketch -->
    <title>Slice 1</title>
    <description>Created with Sketch.</description>
    <defs></defs>
    <g id="Page-1" stroke="none" stroke-width="1" fill="none" fill-rule="evenodd" sketch:type="MSPage">
        <g id="sad" sketch:type="MSLayerGroup" fill="#FFFFFF">
            <g id="Group" sketch:type="MSShapeGroup">
                <path d="M16,-0.034 C7.159,-0.034 -0.035,7.158 -0.035,16 C-0.035,24.842 7.159,32.034 16,32.034 C24.841,32.034 32.035,24.842 32.035,16 C32.035,7.158 24.841,-0.034 16,-0.034 L16,-0.034 Z M16,30.966 C7.748,30.966 1.035,24.252 1.035,16 C1.035,7.748 7.748,1.034 16,1.034 C24.252,1.034 30.965,7.748 30.965,16 C30.965,24.252 24.252,30.966 16,30.966 L16,30.966 Z" id="Shape"></path>
                <path d="M16.163,19.823 C13.374,19.823 10.686,21.002 8.789,23.058 C8.589,23.275 8.602,23.613 8.82,23.813 C9.036,24.013 9.374,24.001 9.575,23.783 C11.27,21.945 13.671,20.891 16.162,20.891 C18.691,20.891 21.118,21.972 22.818,23.858 C22.923,23.974 23.069,24.034 23.215,24.034 C23.343,24.034 23.471,23.989 23.573,23.896 C23.792,23.699 23.81,23.361 23.612,23.141 C21.709,21.032 18.994,19.823 16.163,19.823 L16.163,19.823 Z" id="Shape"></path>
                <path d="M10.5,16.5 C11.603,16.5 12.5,15.603 12.5,14.5 C12.5,13.397 11.603,12.5 10.5,12.5 C9.397,12.5 8.5,13.397 8.5,14.5 C8.5,15.603 9.397,16.5 10.5,16.5 L10.5,16.5 Z M10.5,13.5 C11.051,13.5 11.5,13.948 11.5,14.5 C11.5,15.052 11.051,15.5 10.5,15.5 C9.949,15.5 9.5,15.052 9.5,14.5 C9.5,13.948 9.949,13.5 10.5,13.5 L10.5,13.5 Z" id="Shape"></path>
                <path d="M21.5,16.5 C22.603,16.5 23.5,15.603 23.5,14.5 C23.5,13.397 22.603,12.5 21.5,12.5 C20.397,12.5 19.5,13.397 19.5,14.5 C19.5,15.603 20.397,16.5 21.5,16.5 L21.5,16.5 Z M21.5,13.5 C22.051,13.5 22.5,13.948 22.5,14.5 C22.5,15.052 22.051,15.5 21.5,15.5 C20.949,15.5 20.5,15.052 20.5,14.5 C20.5,13.948 20.949,13.5 21.5,13.5 L21.5,13.5 Z" id="Shape"></path>
            </g>
        </g>
    </g>
</svg>